<?xml version="1.0" encoding="UTF-8" standalone="no"?>
<!DOCTYPE svg PUBLIC "-//W3C//DTD SVG 1.1//EN" "http://www.w3.org/Graphics/SVG/1.1/DTD/svg11.dtd">
<svg width="100%" height="100%" viewBox="0 0 801 677" version="1.1" xmlns="http://www.w3.org/2000/svg" xmlns:xlink="http://www.w3.org/1999/xlink" xml:space="preserve" xmlns:serif="http://www.serif.com/" style="fill-rule:evenodd;clip-rule:evenodd;stroke-linejoin:round;stroke-miterlimit:2;">
    <g transform="matrix(1,0,0,1,-199.504,-261.778)">
        <path d="M372.233,438.434C368.467,441.198 367.38,445.316 367.449,450.395C367.52,451.065 367.598,452.326 367.815,453.563C367.886,453.969 368.24,454.436 368.599,454.657C369.372,455.133 370.102,454.668 370.619,454.154C373.922,450.878 375.565,446.603 377.443,442.491C378.458,440.268 380.052,438.144 379.269,435.435C375.953,434.111 374.276,436.935 372.233,438.434Z" style="fill:none;fill-rule:nonzero;"/>
        <path d="M393.322,453.812C392.606,455.86 392.113,457.944 393.294,460.296C395.199,458.554 395.311,456.535 395.527,454.583C395.611,453.828 395.264,453.091 394.433,453.021C394.075,452.991 393.449,453.445 393.322,453.812Z" style="fill:none;fill-rule:nonzero;"/>
        <path d="M797.48,459.983C794.653,454.345 792.036,448.597 789.237,442.946C787.755,439.953 785.379,438.308 782.647,436.968C780.718,436.021 778.705,436.147 776.966,437.646C775.507,438.904 775.271,440.678 776.593,443.161C778.137,446.061 780.225,448.702 781.524,451.696C786.061,462.154 790.104,472.749 790.716,484.373C790.992,489.616 792.305,494.762 794.518,500.188C798.55,496.525 800.658,492.203 801.264,487.464C802.473,478.025 801.752,468.502 797.48,459.983Z" style="fill:rgb(89,139,217);fill-rule:nonzero;"/>
        <path d="M891.132,899.195C887.365,890.687 883.698,882.134 879.917,873.632C879.099,871.792 878.051,870.032 876.921,868.361C876.039,867.057 874.652,866.374 873.017,866.346C868.215,867.187 865.153,869.145 866.842,874.405C868.069,878.228 870.226,881.624 870.979,885.752C871.68,889.592 873.802,893.217 875.569,896.803C876.924,899.551 877.834,902.358 878.621,905.318C879.774,909.657 880.756,914.178 883.924,917.723C885.241,919.196 886.362,919.273 887.61,917.728C889.381,915.537 890.945,913.307 890.706,910.227C890.551,908.222 890.538,906.164 891.502,904.27C892.4,902.507 891.881,900.888 891.132,899.195Z" style="fill:rgb(89,139,217);fill-rule:nonzero;"/>
        <path d="M606.639,768.357C602.022,770.279 597.475,772.446 592.955,774.613C588.013,776.983 584.237,780.494 580.191,783.836C578.104,785.56 577.424,787.956 577.415,790.612C577.404,794.249 579.003,796.15 583.256,797.391C585.753,798.12 587.989,797.258 589.303,794.186C591.458,789.144 595.908,786.886 600.204,784.429C601.457,783.713 603.182,783.797 604.258,782.589C607.664,778.764 612.409,776.813 616.536,774.038C620.326,771.49 623.466,768.492 627.005,764.794C619.351,763.935 612.868,765.764 606.639,768.357Z" style="fill:rgb(244,210,56);fill-rule:nonzero;"/>
        <path d="M522.154,857.73C516.339,857.608 511.593,854.701 506.538,852.303C499.211,848.826 493.026,844.48 489.924,836.657C489.65,835.965 489.19,835.308 488.687,834.752C487.041,832.933 485.115,832.154 482.564,832.778C477.751,833.954 475.896,836.377 477.146,840.96C477.854,843.559 478.594,846.126 480.859,848.243C483.227,850.456 485.501,852.711 488.061,854.758C493.559,859.155 499.633,861.809 506.639,862.34C510.677,862.646 514.776,862.203 518.802,863.476C520.009,863.245 521.31,863.185 522.45,862.727C523.708,862.222 524.311,861.043 524.154,859.649C524.024,858.506 523.229,857.753 522.154,857.73Z" style="fill:rgb(89,139,217);fill-rule:nonzero;"/>
        <path d="M246.459,494.682C239.976,490.919 233.727,485.922 225.498,490.217C224.626,490.672 223.518,490.647 222.583,491.008C218.356,492.637 213.892,493.879 210.024,496.135C207.048,497.871 204.71,500.729 201.68,502.625C199.477,504.004 199.254,506.372 199.682,508.734C200.058,510.811 201.9,511.339 203.543,511.968C204.237,512.234 205.022,512.267 205.096,512.281C207.325,512.468 208.825,512.286 210.135,511.384C211.801,510.236 213.52,509.142 215.06,507.84C219.279,504.274 224.417,502.32 229.603,501.943C235.298,501.529 240.221,498.637 245.791,498.195C246.351,498.151 247.147,497.253 247.271,496.638C247.389,496.047 246.969,494.978 246.459,494.682Z" style="fill:rgb(244,210,56);fill-rule:nonzero;"/>
        <path d="M754.859,932.84C753.2,931.706 751.157,931.058 749.676,929.751C740.993,922.089 732.722,914.066 727.724,903.311C726.066,899.743 720.178,899.011 717.338,901.941C716.41,902.899 716.046,904.193 716.673,905.443C719.154,910.387 720.462,916.15 724.42,920.059C728.118,923.712 730.767,928.16 735.036,931.476C742.562,937.321 750.043,940.372 759.536,936.479C758.366,933.735 756.273,933.807 754.859,932.84Z" style="fill:rgb(255,133,56);fill-rule:nonzero;"/>
        <path d="M545.904,332.909C547.391,332.933 548.942,332.727 550.362,332.292C553.234,331.411 554.65,329.488 553.94,326.565C552.215,319.458 553.409,312.378 554.427,305.472C555.188,300.306 555.152,295.526 553.638,290.328C546.004,292.055 542.461,297.861 540.454,305.16C538.263,313.126 539.781,321.094 540.948,329.01C541.301,331.408 543.398,332.868 545.904,332.909Z" style="fill:rgb(89,139,217);fill-rule:nonzero;"/>
        <path d="M374.577,566.345C373.585,566.215 372.412,565.982 371.58,566.363C367.733,568.124 363.675,567.642 359.66,567.916C356.361,568.141 353.525,568.392 350.651,565.816C348.173,563.595 343.337,565.109 341.191,567.91C339.508,570.107 339.455,575.561 341.55,577.118C345.106,579.762 348.318,583.539 353.426,582.274C356.413,583.162 359.032,581.341 361.826,581.705C365.407,582.172 368.213,580.383 370.788,578.283C372.927,576.538 374.882,574.563 376.856,572.625C377.806,571.693 378.211,570.483 377.8,569.152C377.312,567.571 376.226,566.561 374.577,566.345Z" style="fill:rgb(89,139,217);fill-rule:nonzero;"/>
        <path d="M806.298,298.407C809.443,298.848 812.366,298.166 814.829,296.13C821.043,290.995 826.366,285.355 825.335,277.926C825.335,275.075 825.271,273.809 825.347,272.551C825.628,267.901 822.865,265.04 819.452,262.651C817.253,261.112 814.08,261.667 811.842,263.85C810.285,265.368 810.86,266.98 811.747,268.674C814.801,274.501 812.518,279.688 808.779,283.911C806.348,286.656 804.995,289.822 803.2,292.802C801.795,295.137 803.553,298.022 806.298,298.407Z" style="fill:rgb(243,110,255);fill-rule:nonzero;"/>
        <path d="M357.268,840.282C355.875,841.332 354.26,842.788 352.719,842.822C346.506,842.961 340.087,845.156 334.134,841.467C333.046,840.793 331.794,840.406 330.5,840.809C328.612,841.397 326.375,841.537 325.658,843.912C325.058,845.896 326.196,848.215 328.613,849.504C331.291,850.931 334.104,852.227 337.205,852.245C342.774,852.276 348.374,852.442 353.907,851.943C358.458,851.533 362.706,849.8 365.787,846.061C369.846,841.137 372.655,835.627 374.29,827.899C371.98,829.25 370.821,829.777 369.837,830.531C365.626,833.753 361.502,837.091 357.268,840.282Z" style="fill:rgb(161,216,255);fill-rule:nonzero;"/>
        <path d="M781.282,766.182C781.312,766.93 781.312,767.727 782.199,767.928C782.644,768.029 783.303,767.97 783.629,767.699C790.458,762.022 797.991,756.72 795.876,745.988C795.828,745.744 795.87,745.482 795.87,745.053C796.646,738.332 794.983,731.64 794.26,724.863C794.057,722.965 793.307,721.567 792.334,720.056C791.072,718.096 789.225,717.589 787.16,717.39C785.468,717.226 784.039,718.295 784.003,719.911C783.958,721.933 783.761,724.059 784.276,725.965C785.628,730.958 785.109,736.035 785.369,741.071C785.513,743.848 785.09,746.664 785.336,749.425C785.641,752.842 784.881,755.927 783.543,758.999C782.541,761.301 781.174,763.514 781.282,766.182Z" style="fill:rgb(243,110,255);fill-rule:nonzero;"/>
        <path d="M677.575,619.307C675.069,620.312 673.45,622.264 673.518,624.283C673.599,626.708 675.441,629.39 677.947,629.848C684.63,631.067 691.2,633.533 698.122,631.998C699.197,631.998 700.232,631.864 701.221,632.02C708.469,633.162 713.928,629.888 718.716,624.981C719.404,624.276 719.91,623.378 720.417,622.52C720.887,621.727 720.107,620.148 719.231,620.17C717.988,620.202 716.715,620.268 715.515,620.561C711.08,621.643 706.747,621.94 702.076,621.576C697.556,621.223 693.106,621.027 688.736,619.755C687.277,619.33 685.796,618.959 684.302,618.678C682.013,618.247 679.762,618.43 677.575,619.307Z" style="fill:rgb(255,133,56);fill-rule:nonzero;"/>
        <path d="M360.349,324.892C366.352,329.182 373.708,328.975 380.331,331.172C380.565,331.25 380.832,331.228 381.793,331.322C386.675,330.723 391.755,328.375 397.031,326.728C397.364,326.624 397.704,325.961 397.709,325.555C397.714,325.175 397.349,324.539 397.022,324.444C391.943,322.964 386.921,321.043 381.729,320.243C373.633,318.996 365.974,316.731 358.749,312.932C357.355,312.199 355.898,311.955 354.359,312.029C352.215,312.132 350.451,313.454 349.875,315.487C349.401,317.162 350.318,318.285 351.4,319.462C353.879,322.161 357.519,322.869 360.349,324.892Z" style="fill:rgb(255,133,56);fill-rule:nonzero;"/>
        <path d="M915.15,382.225C915.93,382.854 916.788,383.431 917.697,383.846C928.884,388.957 940.153,388.775 951.522,384.406C954.93,383.097 956.694,380.245 957.879,377.265C958.781,374.996 959.065,372.435 960.219,370.184C960.256,370.112 959.92,369.849 959.164,369.036C955.783,371.72 951.257,372.245 947.294,374.442C941.401,377.709 935.13,379.075 928.343,377.358C924.953,376.501 921.368,376.647 917.951,375.62C916.499,375.184 914.965,375.933 914.125,377.44C913.285,378.95 913.705,381.06 915.15,382.225Z" style="fill:rgb(255,133,56);fill-rule:nonzero;"/>
        <path d="M642.908,513.157C642.847,516.169 643.082,519.23 641.865,522.169C641.134,523.934 642.065,525.627 642.876,527.229C643.384,528.234 644.268,528.71 645.289,528.857C648.481,529.314 653.113,527 654.109,524.131C655.097,521.288 655.625,518.285 656.055,516.558C655.825,509.209 654.895,503.223 653.492,497.318C652.431,492.851 649.435,491.248 644.863,492.492C641.918,493.293 640.329,495.342 641.365,498.141C643.19,503.073 643.01,508.11 642.908,513.157Z" style="fill:rgb(161,216,255);fill-rule:nonzero;"/>
        <path d="M950.999,563.546C950.629,563.353 949.908,563.349 949.603,563.592C947.035,565.636 944.491,567.713 942.012,569.864C939.207,572.298 936.181,573.855 931.27,572.554C928.144,574.148 923.773,572.855 919.569,573.674C917.875,574.004 916.206,574.771 914.689,575.629C912.843,576.673 912.814,579.32 914.401,580.87C915.763,582.2 917.427,582.5 919.247,582.668C923.762,583.085 928.341,582.657 932.811,583.865C933.917,584.164 935.304,583.73 936.487,583.38C938.662,582.735 940.758,581.83 942.927,581.165C945.257,580.451 946.934,578.884 948.101,576.932C950.331,573.201 951.286,569.012 951.708,564.714C951.744,564.335 951.354,563.731 950.999,563.546Z" style="fill:rgb(244,210,56);fill-rule:nonzero;"/>
        <path d="M530.988,416.648C536.688,422.144 538.454,429.108 538.167,436.665C537.962,442.059 539.734,447.098 540.37,452.331C540.438,452.888 541.268,453.602 541.881,453.786C542.87,454.084 543.922,453.706 544.518,452.8C545.061,451.976 545.46,451.039 545.814,450.11C547.38,446.006 547.245,441.713 547.132,437.428C547.132,435.915 547.232,434.394 547.115,432.889C546.473,424.611 542.72,418.042 536.004,413.206C535.014,412.493 533.742,412.127 532.554,411.741C531.409,411.369 529.51,413.531 529.924,414.725C530.163,415.412 530.482,416.16 530.988,416.648Z" style="fill:rgb(244,210,56);fill-rule:nonzero;"/>
        <path d="M369.572,728.538C367.213,726.275 364.461,724.292 362.594,721.677C360.268,718.419 356.417,715.855 358.084,710.458C359.204,706.833 355.113,703.818 351.276,704.636C348.331,705.264 345.816,707.867 345.407,710.907C345.025,713.745 345.381,716.493 347.016,718.943C348.001,720.419 349.331,721.734 350.012,723.332C351.704,727.306 355.025,728.825 358.834,729.683C360.304,730.014 361.847,730.019 363.357,730.172C365.466,729.777 367.967,730.864 369.572,728.538Z" style="fill:rgb(243,110,255);fill-rule:nonzero;"/>
        <path d="M367.21,725.907C365.606,728.233 363.105,727.146 360.994,727.541C365.671,729.31 367.873,729.446 372.009,728.108C370.279,727.315 368.745,726.611 367.21,725.907Z" style="fill:rgb(243,110,255);fill-rule:nonzero;"/>
        <path d="M986.331,683.454C983.288,680.597 979.317,679.605 975.157,679.208C968.728,678.593 963.751,681.208 960.991,687.019C960.339,688.391 959.775,689.815 959.297,691.257C958.627,693.277 957.276,693.913 955.23,693.794C951.944,693.602 948.619,693.28 945.361,693.573C940.34,694.025 934.933,694.274 931.123,697.942C928.114,700.839 925.009,703.108 921.107,704.49C919.722,704.981 918.467,705.977 917.302,706.926C908.859,713.804 904.063,722.772 902.501,733.468C900.693,745.848 901.252,758.235 902.714,770.606C903.198,774.703 904.818,778.417 906.678,782.034C907.146,782.944 907.892,783.689 909.102,783.399C910.451,783.075 910.337,781.974 910.172,781.023C910.001,780.036 909.509,779.108 909.292,778.124C908.478,774.424 907.211,770.835 907.051,766.977C906.63,756.827 906.806,746.684 907.481,736.561C908.018,728.497 911.334,721.393 915.937,714.865C917.863,712.133 920.483,710.131 923.323,708.42C924.23,707.873 925.598,708.52 925.596,709.506C925.59,712.29 925.428,715.076 925.483,717.858C925.656,726.454 925.475,735.026 926.795,743.619C927.723,749.665 930.269,754.832 933.566,759.494C938.141,765.963 946.451,766.355 951.635,759.882C952.961,758.226 953.283,756.195 954.437,754.537C955.786,753.559 956.02,752.133 956.018,750.609C956.014,746.91 956.011,743.211 956.011,739.512C956.011,737.791 955.852,736.022 957.403,734.754C956.566,732.78 956.003,730.783 955.621,728.77C955.941,735.867 955.173,743.151 954.681,750.387C955.083,741.184 954.552,732.015 953.246,722.877C953.139,722.128 953.076,721.36 952.857,720.641C950.562,713.118 948.435,705.478 940.185,701.978C939.876,701.847 939.624,701.137 939.673,700.737C939.719,700.359 940.126,699.861 940.495,699.709C945.084,697.831 949.877,698.038 954.655,698.552C956.495,698.75 957.493,700.227 957.447,702.434C957.359,706.702 957.316,711.008 957.041,715.225C956.693,720.544 956.793,725.736 957.431,730.982C957.581,732.22 957.421,733.495 957.404,734.754C958.024,736.414 958.53,738.128 959.287,739.723C960.95,743.224 963.72,745.387 967.675,745.155C971.651,744.922 975.13,743.355 976.839,739.425C977.95,736.869 978.725,734.172 978.454,731.296C978.216,728.774 977.776,726.238 977.866,723.724C978.191,714.665 973.772,707.702 968.168,701.277C963.261,695.651 963.172,695.703 966.453,688.857C967.106,687.495 967.881,686.175 968.744,684.936C969.482,683.876 970.561,683.157 971.899,683.019C975.232,682.675 978.508,682.658 981.27,685.009C989.638,692.134 996.237,700.199 995.821,712.07C995.769,713.565 995.938,715.108 996.295,716.556C996.426,717.088 997.353,717.647 998.001,717.779C999.097,718.002 1000.13,717.359 1000.22,716.273C1000.44,713.763 1000.61,711.215 1000.42,708.71C999.644,698.136 993.672,690.346 986.331,683.454ZM940.452,706.365C942.183,707.445 943.47,709.023 944.575,710.765C948.058,716.259 949.811,722.323 949.957,728.737C950.107,735.314 949.846,741.906 949.574,748.484C949.437,751.825 948.222,754.917 946.101,757.541C944.647,759.34 942.37,759.287 940.895,757.554C937.348,753.387 935.503,748.488 934.648,743.141C933.525,736.118 933.159,729.057 933.348,721.957C933.348,717.905 933.193,713.845 933.394,709.803C933.585,705.952 937.115,704.283 940.452,706.365ZM972.485,719.222C973.232,723.689 973.241,728.269 972.677,732.825C972.353,735.444 971.451,737.682 969.555,739.525C968.423,740.625 966.258,740.252 965.914,738.677C965.113,735.001 964.132,731.289 963.979,727.561C963.678,720.257 963.892,712.931 963.893,704.016C968.858,708.994 971.564,713.716 972.485,719.222Z" style="fill:rgb(161,216,255);fill-rule:nonzero;"/>
        <path d="M627.938,367.121C629.684,368.16 629.72,366.349 630.238,365.323C630.678,364.452 631.188,363.424 631.963,362.949C635.613,360.713 639.409,358.709 643.6,357.685C645.875,357.129 648.149,357.174 649.799,359.302L649.799,359.304C651.17,365.236 654.988,369.586 659.163,373.682C661.571,376.044 664.546,377.586 667.794,378.203C674.098,379.4 680.412,378.903 686.541,377.087C689.09,376.332 690.677,374.427 690.928,371.507C691.41,365.893 689.364,361.786 684.493,358.818C678.974,355.455 672.97,353.765 666.688,352.777C662.966,352.789 659.243,352.834 655.521,352.798C653.67,352.78 652.972,351.583 652.906,349.887C650.449,343.522 652.112,337.554 654.723,331.704C655.016,331.048 655.645,330.508 656.203,330.009C659.633,326.938 663.445,324.481 667.825,322.984C669.621,322.37 670.714,322.804 671.316,324.645C674.835,335.409 682.513,342.5 692.013,347.834C699.987,352.311 708.692,353.577 717.722,352.511C720.807,352.146 722.205,350.291 721.643,347.204C720.711,342.079 718.487,337.634 714.019,334.6C709.865,328.704 703.789,325.234 697.788,321.643C693.366,318.998 688.604,317.832 683.493,317.924C682.983,317.921 682.473,317.919 681.963,317.916C680.958,317.927 679.953,317.938 678.948,317.949C678.427,317.961 677.906,317.974 677.386,317.986C676.915,317.814 676.429,317.716 675.927,317.693C675.783,316.183 675.603,314.675 675.5,313.162C675.085,307.052 678.394,303.183 683.34,300.385C686.334,298.692 687.975,299.222 689.497,302.186C690.766,304.657 691.727,307.342 693.319,309.581C698.026,316.2 703.807,320.899 712.574,321.457C717.198,321.751 721.599,320.979 726.104,320.753C729.195,320.66 730.531,318.895 730.61,315.975C730.665,313.937 730.098,312.042 729.188,310.236C725.088,301.878 718.648,296.593 709.32,295.1C704.352,294.711 699.388,294.292 694.418,293.942C690.929,293.696 690.905,293.743 689.997,290.395C689.736,289.432 689.633,288.426 689.457,287.439C689.327,284.689 689.312,281.926 689.007,279.195C688.896,278.198 688.74,276.663 686.802,276.957C686.165,282.971 686.45,288.987 686.741,295.003C686.742,295.002 686.743,295.002 686.743,295.001C686.742,295.002 686.742,295.002 686.741,295.003C685.556,295.452 684.379,295.924 683.184,296.345C674.706,299.333 669.351,304.625 669.886,314.294C669.914,314.798 669.82,315.307 669.815,315.814C669.797,317.907 668.791,318.958 666.687,319.37C663.176,320.059 659.941,321.59 656.92,323.466C650.729,327.312 646.782,332.565 646.908,340.229C646.966,343.78 646.899,347.334 647.037,350.881C647.126,353.163 645.728,353.967 643.944,354.553C638.19,355.063 633.55,358.092 629.001,361.264C628.24,361.795 627.64,362.759 627.307,363.65C626.861,364.852 626.789,366.438 627.938,367.121ZM656.963,356.088C658.721,355.995 660.488,356.069 662.251,356.069C668.409,355.878 674.226,357.174 679.7,360.06C681.744,361.138 683.507,362.535 685.045,364.202C686.8,366.105 687.349,370.619 686.094,372.729C685.747,373.312 685.017,373.835 684.357,374.038C678.917,375.711 673.404,375.362 668.008,374.013C666.156,373.55 664.382,372.206 662.913,370.886C659.305,367.641 656.741,363.599 654.922,359.106C654.225,357.387 655.032,356.191 656.963,356.088ZM683.49,320.781C693.521,321.905 701.246,327.605 708.833,333.573C710.02,334.507 711.17,335.486 712.337,336.445C713.749,339.417 716.27,341.726 717.254,344.98C718.218,348.17 717.581,349.412 714.428,349.521C709.565,349.688 704.817,349.068 700.328,347.061C691.875,343.282 684.116,338.643 679.484,330.149C679.363,329.927 679.205,329.725 679.078,329.505C674.838,322.185 675.186,321.498 683.49,320.781ZM706.13,296.715C706.305,296.815 706.477,296.941 706.65,297.061C706.702,297.096 706.753,297.13 706.805,297.163C707.006,297.292 707.208,297.398 707.421,297.422C716.228,298.387 722.409,303.416 727.424,310.272C727.485,311.254 727.475,312.247 727.621,313.216C728.051,316.058 726.595,317.822 724.343,319.166C720.327,318.783 716.319,318.308 712.297,318.052C709.674,317.885 707.238,317.225 705.175,315.678C699.396,311.345 694.621,306.233 692.788,298.758C697.002,295.706 701.718,297.14 706.13,296.715Z" style="fill:rgb(244,210,56);fill-rule:nonzero;"/>
        <path d="M349.65,419.006C355.423,415.107 361.874,416.295 368.132,416.402C372.753,416.481 374.221,418.577 375.57,424.396C376.469,428.275 373.33,428.307 371.384,429.548C370.745,429.955 370.017,430.22 369.345,430.577C360.606,435.223 356.221,444.599 358.241,454.306C359.119,458.524 362.695,460.574 366.869,459.183C370.114,458.102 372.922,456.189 374.477,453.181C377.7,446.945 382.317,441.25 382.377,433.685C382.391,431.958 383.859,431.072 385.633,431.487C391.371,432.827 394.564,436.868 396.577,442.076C397.485,444.426 397.205,446.357 395.073,448.161C390.07,452.394 388.148,457.983 388.548,464.47C388.847,469.315 392.194,471.081 396.32,468.378C397.558,467.567 398.536,466.341 399.578,465.253C402.734,461.956 402.427,457.761 402.265,453.737C402,447.164 403.099,447.989 408.313,445.97C409.465,445.524 410.795,445.45 412.053,445.38C416.682,445.122 420.478,447.698 421.923,452.07C422.4,453.513 422.924,454.991 423.063,456.486C423.775,464.129 424.381,471.806 418.661,478.125C417.136,479.81 415.386,481.293 413.707,482.834C412.991,483.492 411.929,483.841 412.055,485.129C412.138,485.974 413.855,486.609 415.293,486.113C416.467,485.708 417.708,485.255 418.665,484.501C424.477,479.925 428.631,474.417 428.349,466.523C428.24,463.478 428.363,460.42 428.157,457.384C427.837,452.673 426.059,448.537 422.8,445.064C420.974,443.118 418.817,441.932 416.096,441.998C411.558,442.109 406.988,441.692 402.262,443.182C398.808,434.155 393.32,427.652 382.802,426.764C382.402,425.139 382.123,424.17 381.926,423.184C380.116,414.155 373.512,411.201 366.627,411.239C363.33,411.257 360.007,411.259 356.747,411.671C353.754,412.05 350.806,412.885 347.884,413.688C346.449,414.082 345.565,416.035 345.932,417.366C346.299,418.69 348.393,419.855 349.65,419.006ZM397.335,456.635C397.119,458.587 397.007,460.606 395.102,462.348C393.921,459.996 394.413,457.911 395.13,455.864C395.258,455.498 395.883,455.044 396.242,455.074C397.072,455.143 397.419,455.881 397.335,456.635ZM373.896,441.506C372.018,445.618 370.374,449.893 367.072,453.169C366.555,453.682 365.825,454.147 365.052,453.671C364.693,453.45 364.339,452.983 364.268,452.577C364.051,451.34 363.974,450.079 363.903,449.409C363.834,444.329 364.921,440.212 368.687,437.448C370.729,435.949 372.406,433.125 375.722,434.449C376.504,437.159 374.911,439.284 373.896,441.506Z" style="fill:rgb(243,110,255);fill-rule:nonzero;"/>
        <path d="M577.015,617.304C573.374,608.887 567.569,602.639 558.801,599.432C552.946,596.876 546.931,597.814 540.932,598.658C540.533,598.714 540.212,599.319 539.854,599.669C538.379,600.286 537.165,601.379 536.983,602.891C536.602,606.05 534.575,606.171 532.141,606.111C528.385,606.018 524.583,605.712 520.875,606.14C511.166,607.261 506.139,610.935 505.578,618.662C505.56,618.912 505.497,619.158 505.483,619.408C505.348,621.671 503.491,622.036 501.887,622.679C495.854,622.982 490.784,625.624 486.166,629.268C483.678,631.231 482.229,633.878 481.99,637.054C481.275,646.549 482.578,655.67 487.282,664.109C487.515,664.528 487.957,664.855 488.36,665.144C488.522,665.26 488.903,665.253 489.075,665.138C489.446,664.889 490.079,664.448 490.024,664.237C489.58,662.539 489.024,660.869 488.46,659.204C486.233,652.637 485.876,645.909 486.425,639.041C486.708,635.502 488.115,632.637 490.862,630.627C494.339,628.082 498.283,626.401 502.54,625.504C504.357,625.121 505.331,626.226 506.349,627.359C505.617,630.634 506.206,633.903 506.382,637.175C507.006,648.745 511.852,658.768 519.042,667.362C524.172,673.492 531.539,675.642 539.694,673.495C542.394,672.784 544.049,671.149 544.977,668.575C545.594,666.864 545.63,665.164 545.562,663.365C545.224,654.471 544.027,645.783 540.012,637.693C536.797,634.539 534.376,630.716 530.59,627.98C525.734,624.472 520.518,622.342 514.701,621.412C513.199,621.172 512.66,620.207 512.609,618.78C512.442,614.094 513.386,612.416 517.945,610.985C522.784,609.466 527.87,609.354 532.905,609.226C534.629,609.182 535.94,610.314 535.738,612.044C535.318,615.631 536.582,619.036 536.576,622.519C536.568,627.398 538.253,631.362 541.739,634.657C545.195,634.643 548.616,635.929 552.109,634.854C553.925,634.295 555.344,633.37 555.437,631.349C555.653,626.602 555.687,621.863 552.128,618.039C551,615.103 548.738,613.328 545.998,612.04C545.623,611.711 545.3,611.273 544.866,611.07C541.403,609.449 541.18,606.732 542.281,603.564C542.526,602.861 542.87,602.192 543.169,601.507C547.667,600.967 552.172,601.041 556.679,601.345C560.98,603.23 563.112,606.156 562.827,611.212C562.615,614.996 564.621,618.492 566.763,621.661C568.435,624.137 570.84,625.33 573.829,625.313C576.362,625.298 578.168,623.423 577.898,620.944C577.765,619.711 577.504,618.436 577.015,617.304ZM531.973,635.062C536.632,640.098 539.226,646.026 539.577,652.835C539.772,656.62 539.644,660.438 539.405,664.225C539.212,667.272 537.985,668.217 535.142,668.439C531.927,668.69 529.204,667.812 526.797,665.604C523.768,662.824 521.376,659.578 519.554,655.946C514.718,646.307 512.815,636.048 513.013,624.938C521.837,625.115 527.069,629.762 531.973,635.062ZM542.012,614.373C542.158,613.254 543.547,613.521 544.481,613.486C544.585,613.891 544.667,614.3 544.726,614.714C544.823,614.8 544.921,614.887 545.018,614.973C546.609,616.383 548.199,617.793 549.79,619.204C550.014,619.403 550.239,619.603 550.464,619.802C551.404,622.608 552.673,625.345 551.892,628.456C551.538,629.867 550.635,630.582 549.311,630.674C546.947,630.837 544.798,630.357 543.839,627.827C543.405,626.682 543.188,625.454 542.873,624.264C540.862,621.123 541.578,617.7 542.012,614.373ZM572.622,620.599C572.256,620.723 571.536,620.509 571.303,620.194C570.435,619.017 569.704,617.739 568.922,616.499C568.273,616.175 567.849,615.705 567.906,614.925C567.622,614.071 567.338,613.217 567.054,612.364C567.054,612.363 567.054,612.362 567.053,612.361C566.345,611.359 565.583,610.387 564.968,609.331C564.813,609.065 565.129,608.525 565.228,608.111C565.69,608.27 566.221,608.336 566.595,608.613C566.97,608.891 567.188,609.381 567.475,609.777C568.025,610.38 568.576,610.983 569.126,611.586L569.126,611.587C569.591,612.196 570.057,612.805 570.523,613.414C572.226,615.045 572.678,617.243 573.155,619.404C573.237,619.767 572.915,620.5 572.622,620.599Z" style="fill:rgb(255,133,56);fill-rule:nonzero;"/>
    </g>
</svg>
